<svg width="720" height="1024" viewBox="0 0 720 1024" fill="none" xmlns="http://www.w3.org/2000/svg">
<g clip-path="url(#clip0_36_6996)">
<rect width="720" height="1024" fill="#040119"/>
<g style="mix-blend-mode:soft-light" opacity="0.3">
<path d="M549.808 1100.98C540.576 1097.53 530.544 1096.93 520.959 1095.79C482.22 1091.18 444.008 1080.57 404.585 1083.44C381.358 1085.11 358.28 1088.85 335.061 1090.77C324.762 1091.6 319.066 1084.49 315.225 1075.33C311.286 1065.93 308.223 1053.23 294.922 1055.48C278.113 1058.33 273.38 1072.44 271.675 1087.64C271.427 1089.84 271.019 1092.03 270.686 1094.21C268.803 1092.92 266.675 1091.89 265.078 1090.31C240.106 1065.59 242.303 1031.44 276.657 1016.76C328.703 994.533 357.45 952.76 386.104 908.556C397.678 890.698 413.695 875.709 436.814 886.811C460.7 898.274 456.226 921.996 451.826 941.476C440.045 993.603 454.651 1045.41 487.858 1059.6C517.807 1072.39 550.4 1074.23 581.504 1082.23C596.361 1086.05 610.484 1091.52 622.568 1100.98H681.061C663.93 1091.63 646.898 1082.07 629.378 1073.55C600.921 1059.72 569.664 1055.77 539.168 1048.87C492.841 1038.39 471.746 991.196 480.989 939.248C493.127 871.031 541.431 834.171 590.561 796.305C633.611 763.139 671.967 726.519 671.198 666.055C670.715 627.943 654.156 596.327 627.965 569.821C588.525 529.889 593.547 486.006 613.63 439.261C633.628 392.741 648.384 345.292 630.112 293.833C622.852 273.384 606.354 263.311 590.597 251.667C563.154 231.369 562.39 211.841 592.43 195.818C629.276 176.173 646.11 146.869 653.584 106.831C662.908 56.8661 704.516 40.9966 753.093 64.495C787.255 81.0151 814.891 108.462 850.619 122.12C872.611 130.525 894.394 130.422 915.967 122.12V89.5293C851.73 120.417 806.833 80.4734 761.328 43.1998C733.707 20.581 703.686 10.5003 667.521 18.5062C655.328 21.2037 633.359 25.0936 633.239 4.94613C633.114 -15.0673 652.056 -13.6571 666.865 -15.9972H588.512C590.567 18.1181 605.865 49.1952 611.35 82.5482C618.963 128.85 595.402 159.96 561.982 186.223C550.594 195.159 538.996 204.028 526.595 211.4C513.391 219.252 496.087 228.057 486.877 209.853C477.362 191.074 496.237 182.814 509.319 175.71C534.56 162.004 566.084 157.151 574.355 122.025C582.687 86.6531 569.8 54.1685 563.093 20.743C560.643 8.59027 559.071 -3.73558 557.193 -16H527.197C531.38 -3.21898 535.646 9.53691 539.654 22.3738C550.264 56.3494 564.537 91.1293 536.46 123.12C517.668 144.532 490.108 156.944 473.443 180.75C450.601 213.366 426.866 244.401 388.26 259.894C379.316 263.479 366.596 267.098 367.307 278.971C368.084 291.842 380.863 297.167 391.037 302.777C422.333 320.026 457.881 314.785 491.152 321.612C508.191 325.111 525.9 329.612 532.133 348.582C536.888 363.049 527.836 374.906 517.018 382.281C495.661 396.87 473.524 410.268 450.704 422.414C395.6 451.659 346.72 487.388 319.277 545.993C311.925 561.693 306.037 578.989 315.916 595.864C321.335 605.118 331.386 608.617 342.04 607.187C361.632 604.562 377.43 593.325 393.553 582.991C427.018 561.539 459.636 535.779 500.484 533.321C544.089 530.699 576.471 561.293 611.267 582.128C640.746 599.781 658.664 627.195 653.078 663.251C642.785 729.678 601.663 775.253 548.039 810.714C531.072 821.934 511.477 832.272 491.024 821.387C472.168 811.334 474.826 791.307 478.481 774.521C486.297 738.613 473.11 717.257 442.269 697.69C402.677 672.558 401.913 651.464 434.14 623.084C457.512 602.504 484.689 581.039 516.993 586.749C566.531 595.506 592.292 634.321 592.95 688.246C593.036 695.185 591.508 704.467 600.541 707.539C603.398 708.514 608.97 705.805 611.339 703.071C620.782 692.142 624.515 678.699 625.471 664.466C628.14 624.763 600.571 606.908 571.553 591.432C548.822 579.31 528.225 558.529 499.856 563.228C462.378 569.453 436.739 599.779 403.413 615.067C374.372 628.393 370.204 646.801 390.395 671.852C399.497 683.144 410.765 693.242 422.638 701.602C468.744 734.076 474.151 756.789 443.825 798.33C428.113 819.848 407.735 839.139 397.039 862.894C372.523 917.347 338.61 957.477 280.387 978.683C218.237 1001.33 200.453 1058.81 237.151 1100.98H549.808ZM369.581 570.413C361.444 578.484 347.64 589.899 338.674 578.121C325.798 561.198 342.879 547.429 353.286 536.153C397.581 488.148 453.876 455.63 506.253 417.999C526.956 403.126 546.211 385.199 552.324 359C557.932 334.985 538.312 327.191 521.912 318.169C517.023 315.48 508.708 314.665 509.572 308.027C509.883 305.617 520.168 303.143 525.936 303.054C557.346 302.568 577.438 321.623 577.438 359.941C574.66 396.829 545.706 426.519 511.716 449.947C460.195 485.45 413.865 526.491 369.581 570.413ZM457.04 525.589C455.462 526.083 453.765 526.198 452.124 526.488C452.707 524.729 452.943 522.738 453.929 521.25C474.934 489.474 509.58 474.42 538.601 452.757C581.985 420.364 607.89 358.313 589.397 321.665C575.549 294.218 552.161 282.85 518.018 282.9C500.798 282.699 480.742 289.882 460.375 295.709C451.729 298.189 440.136 303.4 435.292 293.263C430.571 283.381 441.461 277.469 449.157 273.348C509.25 241.162 601.315 249.698 620.246 328.227C631.495 374.914 610.45 413.981 582.268 448.671C549.711 488.709 505.164 510.46 457.04 525.575V525.589Z" fill="#E7E8EC"/>
<path d="M494.633 -16H472.063C486.192 1.2238 497.169 19.9025 500.021 42.9485C503.576 71.6465 497.393 98.1244 476.652 117.663C439.826 152.351 416.537 199.32 375.318 229.607C344.463 252.276 311.259 246.386 280.021 231.81C242.898 214.497 207.717 217.677 172.069 234.211C169.847 235.242 167.264 235.485 164.847 236.096C165.495 233.583 165.797 230.919 166.842 228.587C179.248 200.833 227.945 189.951 265.132 205.999C302.396 222.075 339.692 243.022 378.945 210.467C405.722 188.253 421.342 157.182 442.145 130.215C457.957 109.716 479.918 92.439 481.065 64.0063C482.607 26.2274 462.456 1.67059 432.532 -15.9888H282.316C296.508 -11.0602 310.645 -5.93603 325.063 -1.82276C352.37 5.99609 379.5 -6.19573 406.786 -3.73558C433.43 -1.3285 453.13 12.9353 465.931 36.1238C473.791 50.3652 473.544 65.1429 464.003 79.2084C460.259 84.7291 455.393 88.1442 449.005 87.1724C441.398 86.0247 438.284 79.6329 436.618 72.8388C425.344 26.7635 412.177 17.0625 366.721 29.7347C337.034 38.0087 315.025 22.4268 291.101 12.6337C239.104 -8.65587 187.733 24.6831 187.503 80.8252C187.444 94.3686 186.57 107.945 185.309 121.433C184.431 130.832 182.609 141.631 169.78 139.813C158.051 138.137 153.727 127.247 154.088 117.403C156.085 62.962 166.469 -0.284122 230.003 -16H182.806C150.008 25.7135 135.973 73.5788 141.12 126.535C143.042 146.328 153.896 164.847 177.129 161.415C202.298 157.696 198.974 133.519 201.64 115.34C206.461 82.4281 201.798 45.2327 238.821 26.783C263.263 14.5996 286.61 22.9686 306.457 38.2628C323.574 51.4515 340.039 56.3662 362.219 54.0233C411.241 48.8434 428.811 73.3387 416.934 125.194C406.083 172.546 367.855 213.276 334.126 212.548C308.946 211.989 290.462 194.193 268.484 185.355C225.637 168.12 191.119 186.776 158.626 212.721C109.266 252.133 56.4169 283.872 -8.25252 289.541C-14.2545 290.066 -21.3897 289.172 -22.759 282.493C-24.2893 275.02 -16.8625 272.937 -11.3716 270.991C18.7773 260.273 50.3705 253.566 78.5335 237.364C120.689 213.106 125.402 176.12 118.292 131.86C109.904 79.6636 121.672 30.0195 147.752 -16H122.939C102.941 34.1607 105.902 87.3204 103.405 139.841C101.956 170.412 95.3869 199.775 73.2842 222.584C27.579 269.751 -41.1316 267.768 -91.9001 219.247C-98.8048 212.648 -107.887 199.323 -118.008 207.851C-128.257 216.479 -118.027 227.454 -111.789 236.119C-107.531 242.039 -103.321 248.073 -98.3965 253.409C-72.2443 281.73 -48.8334 314.919 -3.29762 310.484C24.3433 307.792 45.9183 290.585 69.7485 278.949C121.35 253.764 173.413 286.254 173.413 344.086C173.413 415.606 100.545 466.037 27.0874 450.59C-23.7394 439.897 -68.767 413.679 -119.222 403.054C-147.626 397.072 -181.822 416.592 -188.89 445.136C-194.823 469.048 -178.272 489.279 -147.835 497.531C-104.657 509.259 -64.4064 525.734 -35.9712 563.781C-6.07503 603.797 4.60693 605.165 46.8626 575.591C81.9664 551.017 118.048 539.847 160.376 555.376C199.085 569.576 215.16 559.143 215.53 517.787C216.005 464.705 240.332 430.612 288.523 411.808C329.976 395.634 351.682 356.292 341.275 313.715C335.72 291.004 317.611 282.11 296.467 286.958C277.597 291.281 284.524 308.261 287.165 320.696C294.35 354.454 291.837 384.615 261.01 406.522C241.504 420.384 223.057 435.332 213.794 458.713C206.745 476.529 199.235 494.266 185.859 508.334C156.343 539.381 116.462 534.159 79.4084 537.912C0.449127 545.907 -64.8147 508.329 -130.287 472.29C-143.038 465.269 -158.275 455.217 -148.062 438.283C-138.38 422.224 -121.505 427.611 -108.242 435.616C-64.0314 462.298 -21.0898 490.393 31.2229 500.68C75.9144 509.46 121.17 498.374 141.911 469.91C181.823 415.148 192.183 353.186 190.019 287.206C188.697 246.738 211.836 228.47 250.011 241.343C311.162 261.96 366.941 260.533 413.146 209.116C437.076 182.498 455.779 151.058 485.037 129.372C510.603 110.42 522.515 86.223 517.533 53.7664C513.775 29.0701 503.601 6.78635 494.633 -16Z" fill="#E7E8EC"/>
<path d="M804.202 1038.48C750.32 990.311 721.843 941.365 766.329 875.701C790.365 840.237 844.133 828.126 897.026 846.07C903.22 848.17 909.61 849.678 915.965 851.298V791.685C890.005 796.485 863.944 800.821 838.147 806.39C770.317 821.033 718.363 871.174 712.916 937.685C708.439 992.352 744.49 1027.82 787.582 1056.02C799.6 1063.89 816.97 1071.8 809.843 1090.96C807.621 1096.95 803.51 1099.82 798.65 1100.97H835.484C841.641 1072.7 822.544 1054.88 804.202 1038.48Z" fill="#E7E8EC"/>
<path d="M572.515 1011.36C625.702 1029.83 669.725 1065.5 720.14 1088.99C729.122 1093.18 738.23 1097.09 747.337 1101H784.907C782.963 1100.72 781.066 1100.35 779.241 1099.99C733.872 1091.01 697.932 1066.2 666.244 1032.94C615.418 979.607 626.458 862.548 686.481 820.379C719.824 796.953 752.239 772.106 784.046 746.602C793.42 739.085 802.135 723.984 791.128 714.685C779.716 705.057 774.939 722.018 768.145 729.01C755.766 741.752 744.49 756.225 730.211 766.334C675.077 805.353 625.4 847.921 611.757 919.36C609.349 931.976 603.88 945.089 587.916 940.809C575.553 937.494 574.842 924.828 577.084 913.917C589.304 854.215 628.774 814.029 673.682 777.585C699.287 756.784 730.439 740.833 742.66 707.243C752.755 679.542 738.399 652.584 737.121 625.103C736.066 602.373 740.413 577.243 725.667 558.023C714.68 543.695 695.468 535.619 684.998 521.057C656.882 481.963 666.489 437.873 677.051 396.12C688.68 350.148 699.051 305.312 688.097 257.422C677.873 212.701 678.501 167.86 698.943 125.27C702.501 117.861 708.05 110.972 717.324 112.947C726.912 114.988 728.156 123.558 728.114 131.955C727.948 166.511 717.641 200.185 721.171 235.275C724.487 268.226 746.376 292.484 771.328 286.519C814.689 276.157 862.541 298.868 877.981 340.562C893.312 381.937 884.752 427.127 894.071 469.771C898.462 489.876 901.414 510.54 915.959 526.139V460.517C907.905 438.456 905.961 415.044 905.483 392.021C904.005 319.52 871.362 272.744 801.696 250.723C757.105 236.635 741.951 206.493 744.729 145.763C745.715 124.167 752.783 98.6911 723.834 92.679C697.077 87.122 689.922 112.1 682.009 131.231C670.83 158.262 653.86 180.602 634.099 201.9C614.057 223.499 635.19 239.207 646.297 254.97C683.126 307.225 677.626 363.876 653.49 416.002C625.611 476.21 637.634 520.931 680.923 567.221C724.756 614.095 730.244 687.556 697.09 732.417C671.205 767.445 630.838 787.478 600.653 818.385C564.705 855.195 522.391 888.864 515.808 944.528C511.117 984.334 541.233 1000.5 572.515 1011.36Z" fill="#E7E8EC"/>
<path d="M489.615 356.036C489.059 353.16 483.732 349.893 480.113 349.167C449.728 343.163 418.107 344.224 388.808 331.636C378.382 327.154 373.121 334.833 372.285 344.238C368.227 389.92 348.097 422.552 302.994 438.209C276.653 447.352 250.473 460.663 244.28 491.266C239.95 512.667 241.599 535.358 241.199 557.486C240.686 585.742 226.04 599.194 198.958 593.941C175 589.292 151.539 579.85 127.492 578.303C75.7929 574.952 44.3081 610.201 15.4396 646.291C1.76353 663.386 4.11879 682.632 21.4416 697.558C32.8845 707.418 45.1302 703.827 56.001 696.022C68.9771 686.706 79.9479 673.246 94.1488 667.19C167.953 635.697 239.616 650.773 305.458 688.373C364.095 721.855 376.874 767.43 350.174 812.388C325.455 853.996 282.961 866.003 241.349 880.044C185.707 898.806 136.902 925.022 121.854 989.561C113.732 1024.38 96.3014 1053.68 57.6425 1059.73C22.7053 1065.21 0.577591 1041.91 -21.3057 1018.95C-39.8089 999.53 -56.9706 977.651 -83.145 967.997C-128.831 951.151 -162.749 974.141 -195 1001.67V1041.78C-185.437 1027.74 -176.633 1013.07 -162.226 1003.08C-119.551 973.482 -83.0977 980.491 -50.8852 1022.53C-29.0464 1051.03 -5.58551 1078.29 22.4387 1101H127.286C111.752 1035.28 141.001 984.551 185.559 940.294C214.011 912.034 253.464 901.641 287.935 883.129C333.649 858.581 372.205 827.054 382.412 772.135C389.897 731.863 361.489 712.26 334.526 691.939C315.009 677.231 290.088 666.991 285.783 638.394C285.099 633.848 287.557 628.821 288.56 624.018C290.812 625.105 293.654 625.658 295.204 627.369C298.745 631.312 301.478 635.979 304.849 640.089C326.133 666.036 353.368 685.209 379.073 706.139C414.219 734.75 413.138 769.343 385.067 819.06C348.33 884.123 287.205 916.491 226.215 950.064C181.376 974.747 139.643 1044.37 164.279 1100.98H199.088C167.728 1035.33 202.613 966.219 267.049 944.211C295.406 934.527 326.619 929.691 346.039 902.498C368.652 870.848 380.851 832.687 408.022 803.763C420.887 790.08 434.636 775.444 432.408 754.428C429.464 726.66 405.267 715.426 387.3 699.724C354.063 670.683 313.632 646.632 299.689 602.056C280.897 541.977 312.712 496.099 350.327 454.16C385.878 414.507 436.077 397.473 480.083 370.892C485.468 367.641 490.97 362.95 489.615 356.036ZM308.982 486.641C290.801 519.729 284.363 555.785 278.872 592.682C272.365 636.417 240.069 656.81 197.216 639.112C140.426 615.655 93.1851 622.134 50.9655 667.036C46.1912 672.116 36.2452 679.532 32.1152 672.174C24.9744 659.457 36.0563 648.679 43.9581 639.503C84.2501 592.696 131.691 584.986 188.09 609.291C209.753 618.626 239.969 631.631 253.206 595.72C259.969 577.376 259.28 556.249 261.961 536.378C263.102 512.606 261.619 487.675 280.678 469.325C288.752 461.551 299.633 454.017 310.035 460.775C320.245 467.393 313.462 478.482 308.982 486.641Z" fill="#E7E8EC"/>
<path d="M325.652 769.319C318.195 762.098 308.496 781.53 300.731 789.885C284.019 807.863 264.666 818.262 240.544 808.215C217.925 798.796 195.961 793.247 171.994 802.555C122.662 821.711 80.4034 856.133 26.2659 865.77C-20.0281 874.011 -73.1657 848.409 -87.5611 803.432C-98.8541 768.174 -89.658 730.549 -98.4458 694.805C-112.497 637.683 -138.896 590.24 -195 565.666V592.194C-152.603 613.11 -133.341 651.897 -122.676 695.012C-108.256 753.329 -99.9484 813.188 -118.771 871.86C-130.319 907.858 -160.688 926.55 -195 938.321V961.196C-116.205 902.066 -54.0959 921.493 4.27151 989.121C35.1009 1024.84 67.2051 1024.97 84.5056 981.14C110.386 915.571 150.489 867.929 219.783 847.971C252.959 838.418 290.26 837.801 315.393 808.709C325.241 797.308 337.492 780.785 325.652 769.319ZM200.527 835.198C154.977 859.264 119.593 897.769 75.5429 923.845C59.8283 933.149 42.4916 937.731 21.9387 937.84C-7.69081 936.698 -36.2316 925.297 -62.356 907.657C-67.9386 903.887 -75.6876 898.221 -71.1576 889.606C-65.1834 878.227 -54.0987 879.492 -44.6527 883.39C25.6604 912.407 80.8866 878.922 135.602 840.85C154.036 828.005 173.153 815.09 197.66 817.128C202.851 817.561 207.568 819.946 207.534 824.163C207.498 827.944 203.993 833.369 200.527 835.198Z" fill="#E7E8EC"/>
<path d="M275.62 703.962C222.477 681.162 166.315 689.397 111.091 693.711C99.8481 694.588 88.0385 705.051 90.2438 718.692C91.7047 727.723 103.853 726.33 110.98 724.593C150.975 714.842 191.247 708.776 232.289 715.308C244.454 717.243 263.183 715.802 263.141 733.221C263.097 751.356 245.343 749.976 232.609 748.845C194.953 745.494 157.838 741.364 120.57 754.346C42.4222 781.57 -3.53023 761.464 -22.9472 680.626C-45.8831 585.141 -103.978 535.419 -195 517.709V532.942C-194.382 533.032 -193.772 533.169 -193.175 533.352C-116.455 557.926 -55.2041 649.049 -51.3129 742.654C-50.0659 772.587 -44.4666 802.505 -15.7953 819C17.006 837.871 47.741 823.613 75.4235 805.926C126.709 773.162 176.488 742.104 241.777 768.917C259.472 776.178 282.297 767.772 291.857 746.988C300.086 729.094 292.054 711.013 275.62 703.962Z" fill="#E7E8EC"/>
<path d="M135.033 307.769C121.048 287.284 91.7297 284.765 66.2052 302.975C45.3746 317.825 27.9963 338.383 -0.0640106 340.218C-44.0778 343.094 -72.2047 315.786 -100.051 287.558C-137.918 249.181 -148.981 246.897 -195 270.552V307.923C-151.353 286.142 -118.899 314.066 -84.1282 334.49C-22.3695 370.725 17.4393 366.411 77.7177 319.612C86.136 313.075 97.5817 303.935 106.233 313.851C116.704 325.859 107.761 339.505 98.4872 348.679C56.8814 389.831 6.32129 390.886 -46.9635 380.652C-82.7284 373.783 -111.302 349.564 -146.176 340.999C-164.087 336.582 -179.758 342.708 -195 350.745V385.075C-177.977 371.133 -158.985 359.779 -136.658 366.665C-100.99 377.667 -67.0554 394.589 -31.1739 404.614C18.5641 418.515 69.3354 429.188 116.863 395.217C143.568 376.14 152.769 333.753 135.033 307.769Z" fill="#E7E8EC"/>
<path d="M915.972 569.437C908.865 561.652 901.349 554.129 895.786 545.353C866.495 499.14 865.631 445.81 860.429 393.804C855.708 346.472 816.318 313.596 770.719 320.402C731.96 326.185 703.333 364.891 701.68 411.301C700.628 440.926 694.32 471.015 712.995 497.666C723.052 512.022 744.347 512.421 753.163 528.425C765.961 551.655 758.004 577.094 759.631 601.497C761.77 633.51 770.488 662.068 798.332 680.89C839.376 708.635 866.815 704.944 915.961 664.763L915.972 569.437ZM869.034 682.288C839.038 690.434 815.929 677.072 798.196 653.658C782.417 632.823 779.742 607.923 779.517 582.637C779.409 554.029 787.814 522.717 761.186 501.129C746.038 488.842 724.227 486.197 717.434 462.442C703.63 414.18 729.377 355.849 771.674 344.121C804.798 334.936 835.457 361.855 846.192 408.238C857.382 456.595 852.186 508.668 877.902 553.643C890.295 575.316 907.326 594.932 908.159 621.483C909.062 650.48 899.271 674.076 869.034 682.288Z" fill="#E7E8EC"/>
<path d="M31.7651 -16H-15.0233C-23.9944 0.975269 -33.9653 17.5373 -41.1672 35.2414C-53.4184 65.3551 -44.1279 89.4706 -17.2202 107.398C-6.94379 114.248 5.67958 120.243 5.93233 135.175C5.99621 138.889 1.74953 145.046 -1.67781 146.046C-17.5091 150.675 -30.4213 142.695 -40.9616 132.304C-83.545 90.3056 -90.4858 38.3102 -61.3701 -13.9643C-61.0124 -14.6219 -60.697 -15.3019 -60.4258 -16H-81.512C-102.662 29.6062 -92.4161 103.419 -58.4455 140.072C-41.6865 158.162 -21.8585 172.727 4.19366 161.717C26.5269 152.281 27.7378 130.302 26.8157 109.886C24.9049 67.7035 22.0775 25.6074 31.7651 -16Z" fill="#E7E8EC"/>
<path d="M90.3984 -16H68.5789C67.4152 -12.61 66.2181 -9.23111 65.346 -5.76848C53.342 42.0493 63.1241 91.35 55.5779 139.517C50.4174 172.426 25.4651 203.615 -4.31442 208.859C-31.3165 213.606 -54.2858 202.269 -68.9616 179.837C-107.859 120.375 -126.526 55.4866 -116.439 -16H-139.45C-140.233 -11.9733 -141.211 -7.93263 -140.922 -3.99249C-135.681 67.3601 -114.311 135.278 -77.1884 194.481C-47.1311 242.432 7.47572 256.853 51.3589 203.165C80.1636 167.924 83.7242 126.135 84.077 82.967C84.3464 49.9017 79.8636 16.3588 90.3984 -16Z" fill="#E7E8EC"/>
<path d="M722.174 1038.25C666.823 970.056 670.87 896.059 732.026 833.419C782.852 781.362 850.163 769.472 915.969 753.468V705.41C849.033 727.149 796.837 774.085 739.363 811.88C642.204 875.777 640.426 996.358 735.133 1061.12C738.25 1063.25 741.783 1064.75 745.132 1066.57C742.96 1063.74 740.852 1060.87 738.6 1058.11C733.148 1051.46 727.587 1044.92 722.174 1038.25Z" fill="#E7E8EC"/>
<path d="M915.967 6.6551C902.135 16.1075 889.859 28.0927 872.889 32.4322C836.769 41.6724 810.725 23.2171 785.867 1.0004C779.345 -4.83022 772.58 -10.3844 765.869 -16H708.16C734.662 -11.8588 756.648 2.80711 777.81 19.2434C819.649 51.7335 861.746 82.3359 915.967 49.4326V6.6551Z" fill="#E7E8EC"/>
<path d="M561.057 695.378C558.469 716.321 560.121 744.598 531.13 755.921C512.502 763.181 516.688 745.444 515.26 735.815C511.436 710.086 496.346 692.309 476.313 677.618C468.95 672.217 456.918 668.124 458.995 657.387C461.848 642.659 475.796 636.326 488.436 631.713C533.264 615.372 561.057 638.426 561.057 695.378Z" fill="#E7E8EC"/>
<path d="M260.79 344.676C261.66 367.479 255.022 385.53 230.655 391.955C215.593 395.929 212.76 385.08 212.997 374.642C213.68 344.076 215.296 313.516 217.329 283.008C217.829 275.51 220.107 266.209 229.764 265.731C243.62 265.047 246.909 277.459 250.611 287.158C257.606 305.507 261.061 325.028 260.79 344.676Z" fill="#E7E8EC"/>
<path d="M325.273 183.659C299.871 167.742 267.953 152.696 242.406 130.287C219.667 110.335 226.611 62.1878 249.452 52.6711C271.455 43.5259 285.52 61.1937 300.632 72.369C318.091 85.2813 336.099 90.3803 358.083 86.6691C388.868 81.4696 396.844 92.4718 387.182 126.947C379.227 155.33 362.682 176.639 325.273 183.659Z" fill="#E7E8EC"/>
<path d="M369.748 1057.2C346.735 1055.9 343.899 1043.89 352.848 1026.62C365.091 1002.98 377.811 979.609 391.01 956.487C394.987 949.506 400.453 940.807 409.799 942.983C420.797 945.543 424.683 956.861 424.078 966.174C422.48 990.748 424.355 1016.66 408.105 1037.87C398.397 1050.54 384.505 1055.74 369.748 1057.2Z" fill="#E7E8EC"/>
</g>
</g>
<defs>
<clipPath id="clip0_36_6996">
<rect width="720" height="1024" fill="white"/>
</clipPath>
</defs>
</svg>
