<svg width="251" height="80" viewBox="0 0 251 80" fill="none" xmlns="http://www.w3.org/2000/svg">
<g clip-path="url(#clip0_401_1962)">
<path d="M78.3289 153.513C76.4524 152.813 74.4134 152.689 72.4653 152.458C64.5914 151.521 56.8248 149.366 48.8121 149.948C44.091 150.288 39.4005 151.048 34.6811 151.437C32.5879 151.608 31.4301 150.162 30.6493 148.299C29.8489 146.39 29.2262 143.808 26.5227 144.266C23.1063 144.844 22.1444 147.712 21.7977 150.803C21.7475 151.25 21.6645 151.693 21.5968 152.138C21.214 151.876 20.7816 151.665 20.457 151.344C15.3815 146.321 15.828 139.379 22.8105 136.396C33.3889 131.878 39.2317 123.388 45.0558 114.403C47.4081 110.773 50.6637 107.727 55.3627 109.983C60.2175 112.313 59.3081 117.135 58.4139 121.094C56.0192 131.689 58.988 142.218 65.7374 145.102C71.8245 147.703 78.4491 148.076 84.7711 149.702C87.7907 150.479 90.6613 151.59 93.1175 153.513H105.006C101.524 151.614 98.0626 149.669 94.5017 147.938C88.7176 145.128 82.3646 144.325 76.1662 142.923C66.7501 140.792 62.4626 131.2 64.3413 120.641C66.8083 106.776 76.6263 99.2841 86.612 91.5878C95.362 84.8468 103.158 77.4037 103.002 65.1141C102.903 57.3679 99.5377 50.9419 94.2143 45.5545C86.1982 37.4383 87.2189 28.519 91.3009 19.0179C95.3654 9.56272 98.3647 -0.0814114 94.6507 -10.5406C93.1751 -14.6969 89.8218 -16.7441 86.6193 -19.1109C81.0414 -23.2365 80.8861 -27.2055 86.9919 -30.4623C94.4808 -34.4551 97.9023 -40.4112 99.4214 -48.549C101.317 -58.7045 109.774 -61.93 119.647 -57.1539C126.59 -53.7962 132.207 -48.2175 139.469 -45.4415C143.939 -43.7332 148.367 -43.7542 152.751 -45.4415V-52.0656C139.695 -45.7878 130.57 -53.9063 121.321 -61.4822C115.707 -66.0795 109.605 -68.1284 102.254 -66.5012C99.7759 -65.9529 95.3106 -65.1623 95.2864 -69.2573C95.261 -73.3251 99.111 -73.0385 102.121 -73.5141H86.1954C86.6131 -66.5801 89.7225 -60.2636 90.8374 -53.4846C92.3847 -44.0737 87.596 -37.7504 80.8031 -32.4124C78.4886 -30.5962 76.1312 -28.7936 73.6107 -27.2952C70.927 -25.6992 67.41 -23.9097 65.5381 -27.6097C63.6041 -31.4266 67.4405 -33.1054 70.0994 -34.5493C75.2297 -37.3349 81.6369 -38.3214 83.3181 -45.4608C85.0116 -52.6502 82.3923 -59.2528 81.029 -66.0466C80.531 -68.5166 80.2115 -71.0219 79.8299 -73.5146H73.7332C74.5833 -70.9169 75.4504 -68.3242 76.265 -65.7151C78.4215 -58.8095 81.3225 -51.7404 75.6158 -45.2384C71.7963 -40.8862 66.1946 -38.3634 62.8075 -33.5249C58.1649 -26.8957 53.3406 -20.5877 45.4938 -17.4388C43.6761 -16.7101 41.0906 -15.9745 41.2351 -13.5612C41.3932 -10.9453 43.9905 -9.8629 46.0584 -8.72266C52.4193 -5.21678 59.6445 -6.28211 66.4069 -4.8944C69.8702 -4.18323 73.4695 -3.26832 74.7363 0.587182C75.7028 3.52776 73.863 5.93766 71.6642 7.43661C67.3235 10.4019 62.8239 13.125 58.1858 15.5937C46.9859 21.5379 37.0509 28.7999 31.473 40.7115C29.9787 43.9024 28.7819 47.4179 30.7899 50.8477C31.8913 52.7286 33.9343 53.4398 36.0997 53.1492C40.0818 52.6157 43.2928 50.3318 46.5698 48.2312C53.3717 43.8711 60.0013 38.6353 68.3037 38.1359C77.1665 37.6029 83.7482 43.8212 90.8205 48.0558C96.8122 51.644 100.454 57.2158 99.3187 64.5443C97.2266 78.0456 88.8684 87.3089 77.9693 94.5165C74.5207 96.797 70.538 98.8981 66.3809 96.6857C62.5484 94.6425 63.0887 90.5719 63.8316 87.1602C65.4201 79.8618 62.7398 75.5211 56.4714 71.5441C48.4242 66.436 48.269 62.1486 54.8191 56.3804C59.5695 52.1974 65.0932 47.8345 71.6591 48.9952C81.7278 50.7751 86.9637 58.6643 87.0975 69.6246C87.115 71.035 86.8045 72.9216 88.6403 73.5459C89.2212 73.744 90.3536 73.1935 90.8351 72.6378C92.7545 70.4164 93.5132 67.6841 93.7074 64.7912C94.2499 56.7215 88.6465 53.0924 82.7485 49.947C78.1285 47.4832 73.942 43.2593 68.1761 44.2145C60.5585 45.4796 55.3475 51.6434 48.5738 54.7509C42.6713 57.4593 41.8239 61.2007 45.9279 66.2924C47.7779 68.5876 50.0681 70.64 52.4814 72.3393C61.8524 78.9395 62.9515 83.5561 56.7875 91.9993C53.5941 96.373 49.4522 100.294 47.2783 105.122C42.2953 116.19 35.4026 124.346 23.5686 128.656C10.9365 133.259 7.32187 144.943 14.7808 153.513H78.3289ZM41.6975 45.6749C40.0434 47.3152 37.2378 49.6354 35.4155 47.2414C32.7985 43.8019 36.2702 41.0032 38.3855 38.7114C47.3884 28.9543 58.8305 22.3449 69.4761 14.6964C73.684 11.6735 77.5978 8.02972 78.8403 2.70479C79.9801 -2.17631 75.9923 -3.7604 72.6589 -5.59422C71.6653 -6.14079 69.9752 -6.30651 70.1507 -7.65562C70.214 -8.14544 72.3044 -8.6483 73.4769 -8.66646C79.861 -8.76522 83.9447 -4.89213 83.9447 2.89606C83.3802 10.3936 77.4951 16.428 70.5865 21.1899C60.1148 28.406 50.6981 36.7476 41.6975 45.6749ZM59.4735 36.5643C59.1528 36.6647 58.8079 36.688 58.4743 36.747C58.5928 36.3894 58.6408 35.9848 58.8412 35.6823C63.1107 29.2239 70.1524 26.1641 76.0511 21.7609C84.8688 15.1771 90.134 2.56516 86.3755 -4.88362C83.5608 -10.4623 78.807 -12.7728 71.8674 -12.7626C68.3674 -12.8035 64.2911 -11.3437 60.1515 -10.1592C58.3941 -9.65517 56.0379 -8.59609 55.0533 -10.6564C54.0937 -12.665 56.3071 -13.8665 57.8714 -14.7043C70.0853 -21.2461 88.7978 -19.511 92.6456 -3.54983C94.9318 5.93936 90.6545 13.8797 84.9264 20.9306C78.3091 29.0684 69.2548 33.4892 59.4735 36.5614V36.5643Z" fill="#E7E8EC"/>
<path d="M67.1144 -73.5146H62.5271C65.3988 -70.0139 67.6298 -66.2174 68.2095 -61.5333C68.9321 -55.7004 67.6755 -50.3187 63.4597 -46.3474C55.9748 -39.297 51.2413 -29.7505 42.8634 -23.5947C36.5922 -18.9871 29.8434 -20.1841 23.4943 -23.1469C15.949 -26.6658 8.79825 -26.0193 1.55269 -22.6587C1.10108 -22.4493 0.576079 -22.3999 0.0849509 -22.2756C0.216483 -22.7864 0.278018 -23.3279 0.490276 -23.8018C3.01197 -29.4429 12.9096 -31.6547 20.4679 -28.3929C28.042 -25.1254 35.6223 -20.8681 43.6006 -27.4848C49.0431 -31.9998 52.218 -38.3151 56.4462 -43.7962C59.66 -47.9627 64.1236 -51.4742 64.3567 -57.2532C64.67 -64.9319 60.5745 -69.9231 54.4924 -73.5124H23.9606C26.8452 -72.5106 29.7186 -71.4691 32.649 -70.6331C38.1993 -69.0439 43.7135 -71.5219 49.2593 -71.0219C54.6747 -70.5326 58.6788 -67.6335 61.2807 -62.9204C62.8783 -60.0258 62.828 -57.0222 60.8889 -54.1634C60.1279 -53.0413 59.1389 -52.3472 57.8405 -52.5447C56.2943 -52.7779 55.6615 -54.0771 55.3228 -55.458C53.0314 -64.8229 50.355 -66.7946 41.1162 -64.219C35.0821 -62.5373 30.6089 -65.7043 25.7461 -67.6948C15.1778 -72.0219 4.73656 -65.2457 4.6897 -53.8348C4.67785 -51.082 4.50003 -48.3225 4.24374 -45.5812C4.06535 -43.6707 3.69503 -41.4759 1.08753 -41.8454C-1.29642 -42.186 -2.17537 -44.3995 -2.10198 -46.4002C-1.69609 -57.4655 0.414626 -70.3204 13.3279 -73.5146H3.73511C-2.93125 -65.0363 -5.78375 -55.3076 -4.73771 -44.5442C-4.34706 -40.5213 -2.14094 -36.7572 2.58124 -37.4547C7.69688 -38.2107 7.02115 -43.1247 7.56309 -46.8196C8.54308 -53.509 7.59526 -61.069 15.1203 -64.8189C20.088 -67.2952 24.8333 -65.5942 28.8673 -62.4856C32.3464 -59.805 35.6929 -58.8061 40.2011 -59.2823C50.1648 -60.3351 53.7359 -55.3564 51.3221 -44.8166C49.1165 -35.1924 41.3465 -26.9138 34.491 -27.0619C29.3731 -27.1755 25.6163 -30.7926 21.1493 -32.5889C12.4405 -36.092 5.4247 -32.3 -1.17957 -27.0268C-11.2121 -19.0161 -21.9537 -12.5651 -35.0979 -11.4129C-36.3178 -11.3062 -37.7681 -11.4878 -38.0464 -12.8455C-38.3574 -14.3643 -36.8479 -14.7877 -35.7319 -15.1833C-29.604 -17.3616 -23.1827 -18.7249 -17.4585 -22.018C-8.89028 -26.9484 -7.9323 -34.4659 -9.37746 -43.4619C-11.0823 -54.0709 -8.69044 -64.1611 -3.38964 -73.5146H-8.43302C-12.4975 -63.3194 -11.8958 -52.5146 -12.4033 -41.8397C-12.6979 -35.626 -14.033 -29.658 -18.5254 -25.0221C-27.8151 -15.4353 -41.7806 -15.8383 -52.0994 -25.7004C-53.5028 -27.0415 -55.3488 -29.75 -57.4059 -28.0166C-59.4889 -26.2628 -57.4098 -24.0323 -56.1419 -22.2711C-55.2765 -21.0679 -54.4207 -19.8413 -53.4198 -18.7567C-48.1043 -13.0004 -43.346 -6.25486 -34.0908 -7.15616C-28.4728 -7.7033 -24.0876 -11.2007 -19.2441 -13.5657C-8.75593 -18.6846 1.82591 -12.081 1.82591 -0.326603C1.82591 14.21 -12.9847 24.4603 -27.915 21.3205C-38.2456 19.1473 -47.3976 13.8184 -57.6526 11.6588C-63.4259 10.443 -70.3762 14.4103 -71.8129 20.212C-73.0187 25.0721 -69.6547 29.1842 -63.4682 30.8613C-54.6922 33.2451 -46.5113 36.5938 -40.7318 44.3269C-34.6553 52.4602 -32.4842 52.7383 -23.8957 46.7272C-16.7608 41.7325 -9.42713 39.4623 -0.823918 42.6185C7.04373 45.5046 10.3111 43.3842 10.3862 34.9785C10.4828 24.1895 15.4274 17.2601 25.2223 13.4381C33.6477 10.1507 38.0593 2.15424 35.9441 -6.49949C34.8151 -11.1155 31.1344 -12.9232 26.8368 -11.9379C23.0015 -11.0593 24.4094 -7.60795 24.9462 -5.08056C26.4066 1.78078 25.8957 7.91109 19.6302 12.3637C15.6656 15.1811 11.9161 18.2193 10.0334 22.9715C8.60067 26.5926 7.07422 30.1978 4.35551 33.0572C-1.64359 39.3675 -9.74947 38.3061 -17.2807 39.0689C-33.3293 40.6939 -46.5943 33.0561 -59.9016 25.7311C-62.4933 24.3042 -65.5902 22.2609 -63.5145 18.8192C-61.5466 15.5551 -58.1166 16.65 -55.421 18.2772C-46.4351 23.7003 -37.7071 29.4106 -27.0745 31.5015C-17.9908 33.286 -8.79262 31.0327 -4.57682 25.2475C3.53527 14.1169 5.64091 1.52311 5.20115 -11.8874C4.93245 -20.1126 9.63542 -23.8257 17.3947 -21.2092C29.8236 -17.0188 41.1608 -17.3088 50.5521 -27.7595C55.4159 -33.1696 59.2174 -39.5598 65.164 -43.9676C70.3603 -47.8197 72.7816 -52.7376 71.7688 -59.3345C71.005 -64.3541 68.9372 -68.8833 67.1144 -73.5146Z" fill="#E7E8EC"/>
<path d="M82.9441 135.298C93.7546 139.052 102.702 146.302 112.949 151.077C114.775 151.928 116.626 152.723 118.477 153.517H126.113C125.718 153.461 125.332 153.385 124.962 153.312C115.74 151.487 108.435 146.444 101.995 139.684C91.6642 128.844 93.9081 105.051 106.108 96.4806C112.885 91.7192 119.473 86.669 125.938 81.4854C127.843 79.9575 129.615 76.8881 127.378 74.9981C125.058 73.0411 124.087 76.4885 122.706 77.9097C120.19 80.4995 117.898 83.4412 114.996 85.4958C103.79 93.4265 93.693 102.079 90.9201 116.599C90.4307 119.163 89.3192 121.828 86.0744 120.958C83.5617 120.284 83.4172 117.71 83.8727 115.492C86.3566 103.358 94.3789 95.1899 103.507 87.7826C108.711 83.5547 115.042 80.3128 117.526 73.4855C119.578 67.8552 116.66 62.3759 116.401 56.7905C116.186 52.1704 117.07 47.0629 114.073 43.1563C111.839 40.2441 107.935 38.6027 105.806 35.6428C100.092 27.6969 102.044 18.7355 104.191 10.2492C106.555 0.905315 108.663 -8.20758 106.436 -17.9414C104.358 -27.031 104.486 -36.145 108.641 -44.8016C109.364 -46.3074 110.492 -47.7076 112.377 -47.3063C114.326 -46.8914 114.578 -45.1495 114.57 -43.4428C114.536 -36.4192 112.441 -29.5749 113.159 -22.4428C113.833 -15.7455 118.282 -10.815 123.353 -12.0273C132.166 -14.1336 141.892 -9.51753 145.031 -1.04315C148.147 7.36652 146.407 16.5515 148.301 25.2188C149.193 29.3053 149.793 33.5054 152.75 36.6758V23.3379C151.113 18.8541 150.718 14.0956 150.62 9.41602C150.32 -5.31978 143.685 -14.8271 129.526 -19.303C120.462 -22.1664 117.382 -28.2927 117.947 -40.6362C118.147 -45.0258 119.584 -50.2037 113.7 -51.4257C108.261 -52.5552 106.807 -47.4783 105.199 -43.5898C102.927 -38.0958 99.4776 -33.5552 95.4611 -29.2264C91.3876 -24.8362 95.683 -21.6436 97.9405 -18.4397C105.426 -7.81879 104.308 3.69549 99.4026 14.2903C93.736 26.5277 96.1797 35.6173 104.978 45.0259C113.887 54.5531 115.003 69.4841 108.264 78.6021C103.003 85.7217 94.7984 89.7935 88.6632 96.0753C81.3567 103.557 72.7563 110.4 71.4184 121.714C70.4649 129.805 76.586 133.091 82.9441 135.298Z" fill="#E7E8EC"/>
<path d="M66.0944 2.10234C65.9815 1.51774 64.8988 0.853682 64.1632 0.706114C57.9874 -0.51416 51.5604 -0.298478 45.6053 -2.85708C43.4861 -3.76803 42.4169 -2.20721 42.247 -0.29564C41.4223 8.98922 37.3307 15.6218 28.1635 18.8042C22.8096 20.6624 17.4885 23.368 16.2296 29.588C15.3496 33.9379 15.6849 38.5499 15.6036 43.0473C15.4992 48.7906 12.5225 51.5246 7.01788 50.457C2.14837 49.512 -2.6201 47.593 -7.50767 47.2786C-18.0156 46.5975 -24.4149 53.7619 -30.2825 61.0972C-33.0622 64.5718 -32.5834 68.4835 -29.0626 71.5172C-26.7368 73.5213 -24.2478 72.7914 -22.0383 71.205C-19.4009 69.3116 -17.171 66.5759 -14.2847 65.3449C0.716188 58.9438 15.2818 62.0081 28.6642 69.6504C40.5823 76.4556 43.1796 85.7189 37.7529 94.8567C32.7287 103.314 24.0916 105.754 15.6341 108.608C4.32458 112.421 -5.5951 117.75 -8.65364 130.867C-10.3043 137.944 -13.8472 143.899 -21.7047 145.13C-28.8057 146.243 -33.3032 141.508 -37.751 136.84C-41.5118 132.894 -45 128.447 -50.32 126.485C-59.6057 123.06 -66.4995 127.733 -73.0547 133.328V141.481C-71.1111 138.627 -69.3215 135.646 -66.3934 133.615C-57.7196 127.599 -50.3104 129.024 -43.7631 137.568C-39.3243 143.362 -34.5559 148.901 -28.8599 153.517H-7.54944C-10.7068 140.16 -4.76187 129.849 4.29465 120.854C10.0775 115.11 18.0965 112.997 25.1027 109.235C34.3941 104.245 42.2307 97.8376 44.3052 86.6752C45.8266 78.4898 40.0528 74.5054 34.5724 70.3752C30.6056 67.3858 25.5402 65.3046 24.6652 59.4921C24.5263 58.5681 25.0259 57.5465 25.2297 56.5702C25.6875 56.791 26.265 56.9034 26.58 57.2513C27.2998 58.0527 27.8553 59.0011 28.5406 59.8366C32.8665 65.1105 38.4021 69.0074 43.6267 73.2613C50.7701 79.0766 50.5505 86.1077 44.8449 96.2127C37.3781 109.437 24.9542 116.016 12.558 122.84C3.44449 127.856 -5.03792 142.008 -0.0306665 153.514H7.04441C0.670466 140.171 7.76078 126.123 20.8575 121.65C26.6212 119.682 32.9653 118.699 36.9124 113.172C41.5086 106.739 43.988 98.9824 49.5106 93.1035C52.1255 90.3224 54.9198 87.3478 54.4671 83.0763C53.8687 77.4324 48.9507 75.149 45.2988 71.9576C38.5432 66.0549 30.3256 61.1664 27.4917 52.1063C23.6722 39.8951 30.1387 30.5705 37.784 22.0462C45.0098 13.9867 55.2128 10.5245 64.157 5.1218C65.2516 4.46115 66.3699 3.50764 66.0944 2.10234ZM29.3806 28.6481C25.6853 35.3732 24.3767 42.7017 23.2607 50.201C21.938 59.0902 15.3738 63.2352 6.66393 59.638C-4.87872 54.8704 -14.4806 56.1871 -23.0618 65.3136C-24.0322 66.346 -26.0537 67.8535 -26.8931 66.358C-28.3445 63.7733 -26.0921 61.5824 -24.486 59.7174C-16.2966 50.2038 -6.65412 48.6368 4.80893 53.5769C9.21215 55.4743 15.3535 58.1174 18.044 50.8185C19.4186 47.0901 19.2786 42.7959 19.8233 38.7571C20.0554 33.9254 19.7539 28.8581 23.6276 25.1286C25.2687 23.5485 27.4804 22.0172 29.5945 23.3907C31.6697 24.7359 30.2912 26.9897 29.3806 28.6481Z" fill="#E7E8EC"/>
<path d="M32.7688 86.1028C31.2531 84.6351 29.2818 88.5848 27.7034 90.2829C24.3067 93.9369 20.3732 96.0506 15.4704 94.0085C10.8729 92.094 6.40875 90.9663 1.53754 92.858C-8.48938 96.7515 -17.0785 103.748 -28.082 105.707C-37.4914 107.382 -48.2917 102.178 -51.2175 93.0362C-53.5129 85.8701 -51.6437 78.2227 -53.4299 70.9578C-56.2858 59.3476 -61.6515 49.7046 -73.0547 44.71V50.1019C-64.4374 54.353 -60.5224 62.2365 -58.3547 70.9998C-55.4237 82.8529 -53.7353 95.0193 -57.561 106.944C-59.9083 114.261 -66.0807 118.06 -73.0547 120.453V125.102C-57.0394 113.084 -44.4157 117.032 -32.5524 130.778C-26.2863 138.037 -19.7611 138.064 -16.2447 129.156C-10.9845 115.829 -2.83349 106.145 11.2506 102.089C17.9937 100.147 25.5752 100.022 30.6835 94.1089C32.6852 91.7915 35.1753 88.4332 32.7688 86.1028ZM7.33681 99.4929C-1.92124 104.384 -9.11316 112.21 -18.0664 117.51C-21.2604 119.401 -24.7841 120.333 -28.9615 120.355C-34.9838 120.123 -40.7847 117.805 -46.0946 114.22C-47.2292 113.454 -48.8042 112.302 -47.8835 110.551C-46.6692 108.239 -44.4163 108.496 -42.4963 109.288C-28.2051 115.186 -16.9803 108.38 -5.8593 100.642C-2.11261 98.0308 1.77295 95.4058 6.75423 95.8201C7.80931 95.9081 8.76786 96.3928 8.76109 97.2498C8.75375 98.0183 8.04132 99.1211 7.33681 99.4929Z" fill="#E7E8EC"/>
<path d="M22.5996 72.8192C11.7982 68.185 0.383119 69.8587 -10.8411 70.7356C-13.1263 70.9139 -15.5266 73.0405 -15.0784 75.8131C-14.7815 77.6486 -12.3123 77.3654 -10.8637 77.0124C-2.73469 75.0304 5.45077 73.7977 13.7926 75.1252C16.2652 75.5185 20.0717 75.2257 20.0633 78.7662C20.0542 82.452 16.4458 82.1716 13.8575 81.9417C6.20384 81.2606 -1.33978 80.4212 -8.91445 83.0598C-24.7982 88.5931 -34.1381 84.5066 -38.0847 68.076C-42.7464 48.6685 -54.5544 38.5624 -73.0547 34.9629V38.059C-72.9291 38.0772 -72.8051 38.1051 -72.6838 38.1424C-57.0902 43.137 -44.6409 61.6579 -43.85 80.6834C-43.5966 86.7672 -42.4585 92.8481 -36.631 96.2008C-29.9641 100.036 -23.7172 97.1384 -18.0906 93.5434C-7.66687 86.8841 2.45094 80.5716 15.721 86.0214C19.3175 87.4971 23.9567 85.7887 25.8998 81.5643C27.5724 77.9273 25.9399 74.2523 22.5996 72.8192Z" fill="#E7E8EC"/>
<path d="M80.6153 71.0743C80.0892 75.3311 80.425 81.0783 74.5326 83.3798C70.7464 84.8555 71.5972 81.2503 71.307 79.2933C70.5297 74.0637 67.4626 70.4505 63.3908 67.4646C61.8943 66.3669 59.4488 65.5348 59.871 63.3525C60.4508 60.3592 63.2858 59.0719 65.8549 58.1343C74.9662 54.8129 80.6153 59.4987 80.6153 71.0743Z" fill="#E7E8EC"/>
<path d="M19.5855 -0.206559C19.7622 4.42821 18.413 8.09698 13.4605 9.40296C10.3991 10.2106 9.82334 8.0056 9.87132 5.88403C10.0102 -0.328583 10.3387 -6.54006 10.752 -12.7408C10.8536 -14.2647 11.3165 -16.1553 13.2793 -16.2523C16.0957 -16.3914 16.7641 -13.8685 17.5166 -11.8973C18.9383 -8.16786 19.6405 -4.20022 19.5855 -0.206559Z" fill="#E7E8EC"/>
</g>
<path d="M129.333 58.5H107.145V24.1664H114.413V51.9489H129.333V58.5ZM140.97 27.0355C140.97 29.2829 139.153 30.9566 136.523 30.9566C133.941 30.9566 132.123 29.2829 132.123 27.0355C132.123 24.6924 133.941 23.0187 136.523 23.0187C139.153 23.0187 140.97 24.6924 140.97 27.0355ZM139.918 58.5H133.271V32.965H139.918V58.5ZM152.001 44.5848V58.5H145.355V32.965H151.475V36.5992C153.34 34.0648 155.97 32.4868 159.318 32.4868C164.434 32.4868 167.973 35.8341 167.973 42.0026V58.5H161.374V44.2501C161.374 40.4725 159.891 38.3684 156.879 38.3684C154.249 38.3684 152.001 40.4725 152.001 44.5848ZM198.709 45.7325C198.709 53.2878 194.262 58.9782 187.376 58.9782C184.364 58.9782 181.781 57.6871 179.869 55.2005V67.729H173.222V32.965H179.343V36.6948C181.303 33.9692 184.124 32.4868 187.376 32.4868C194.262 32.4868 198.709 38.225 198.709 45.7325ZM191.871 45.7325C191.871 40.9506 189.145 38.3684 185.894 38.3684C182.642 38.3684 179.916 40.9028 179.916 45.7325C179.916 50.5621 182.642 53.0487 185.894 53.0487C189.145 53.0487 191.871 50.61 191.871 45.7325ZM217.696 58.5V55.344C216.023 57.7349 213.488 58.9782 209.998 58.9782C204.69 58.9782 201.151 55.87 201.151 51.0881C201.151 46.115 205.168 43.4372 212.628 43.4372C214.062 43.4372 215.305 43.5328 216.883 43.7241V42.1939C216.883 39.3248 215.258 37.6512 212.484 37.6512C209.615 37.6512 207.894 39.3248 207.654 42.1939H201.677C202.06 36.3123 206.316 32.4868 212.484 32.4868C219.179 32.4868 223.1 36.1688 223.1 42.433V58.5H217.696ZM207.415 50.8969C207.415 53.0487 208.946 54.3876 211.432 54.3876C214.827 54.3876 216.883 52.5227 216.883 49.558V47.7409C215.305 47.5018 214.206 47.4061 213.058 47.4061C209.28 47.4061 207.415 48.6016 207.415 50.8969ZM250.463 32.965L238.03 67.729H230.809L234.444 58.2131L224.402 32.965H231.574L237.982 50.4665L243.816 32.965H250.463Z" fill="#E7E8EC"/>
<defs>
<clipPath id="clip0_401_1962">
<rect width="79.6974" height="80" rx="39.8487" fill="white"/>
</clipPath>
</defs>
</svg>
