<svg width="57" height="56" viewBox="0 0 57 56" fill="none" xmlns="http://www.w3.org/2000/svg">
<path d="M40.1667 49.5834H16.8333C8.31666 49.5834 3.41666 44.6834 3.41666 36.1667V19.8334C3.41666 11.3167 8.31666 6.41675 16.8333 6.41675H33.1667C34.1233 6.41675 34.9167 7.21008 34.9167 8.16675C34.9167 9.12341 34.1233 9.91675 33.1667 9.91675H16.8333C10.16 9.91675 6.91666 13.1601 6.91666 19.8334V36.1667C6.91666 42.8401 10.16 46.0834 16.8333 46.0834H40.1667C46.84 46.0834 50.0833 42.8401 50.0833 36.1667V24.5001C50.0833 23.5434 50.8767 22.7501 51.8333 22.7501C52.79 22.7501 53.5833 23.5434 53.5833 24.5001V36.1667C53.5833 44.6834 48.6833 49.5834 40.1667 49.5834Z" fill="#01C295"/>
<path d="M28.4995 30.03C26.5395 30.03 24.5562 29.4233 23.0395 28.1866L15.7362 22.3533C14.9895 21.7466 14.8495 20.65 15.4562 19.9033C16.0628 19.1566 17.1595 19.0166 17.9061 19.6233L25.2095 25.4566C26.9828 26.88 29.9928 26.88 31.7661 25.4566L34.5195 23.2633C35.2661 22.6566 36.3862 22.7733 36.9695 23.5433C37.5762 24.29 37.4595 25.41 36.6895 25.9933L33.9361 28.1866C32.4428 29.4233 30.4595 30.03 28.4995 30.03Z" fill="#01C295"/>
<path d="M46 20.4167C41.8233 20.4167 38.4167 17.01 38.4167 12.8333C38.4167 8.65667 41.8233 5.25 46 5.25C50.1767 5.25 53.5833 8.65667 53.5833 12.8333C53.5833 17.01 50.1767 20.4167 46 20.4167ZM46 8.75C43.76 8.75 41.9167 10.5933 41.9167 12.8333C41.9167 15.0733 43.76 16.9167 46 16.9167C48.24 16.9167 50.0833 15.0733 50.0833 12.8333C50.0833 10.5933 48.24 8.75 46 8.75Z" fill="#01C295"/>
</svg>
